<svg width="2236" height="636" viewBox="0 0 2236 636" fill="none" xmlns="http://www.w3.org/2000/svg">
<path d="M1103 498.5L1152.5 419L1151.04 393L1100.93 451L1103 498.5Z" fill="#0588E0"/>
<path d="M1100.93 451L1151.04 393L1149.47 365L1098.8 402L1100.93 451Z" fill="url(#paint0_linear_35_3)"/>
<path d="M1008 265.5L1031 306.5L1054 305.232L1118 260L1008 265.5Z" fill="#0588E0"/>
<path fill-rule="evenodd" clip-rule="evenodd" d="M1207 298.5L1146 303L1149.47 365L1098.8 402L1094.5 303L1158 258L1228 254.5L1207 298.5Z" fill="#0588E0"/>
<path d="M1094.5 303L1158 258L1118 260L1054 305.232L1094.5 303Z" fill="url(#paint1_linear_35_3)"/>
<path d="M1245 414L1231 195L1359.5 414H1245Z" fill="#0154A4"/>
<path fill-rule="evenodd" clip-rule="evenodd" d="M989.5 226L823 519.5H940.5L1001 480.5L999.486 447L957 480.5L997.634 406L989.5 226Z" fill="#0154A4"/>
<path d="M957 480.5L999.486 447L997.634 406L957 480.5Z" fill="#0588E0"/>
<path d="M1223 186L1118 0L1012 195L1118 52L1223 186Z" fill="#093979"/>
<path fill-rule="evenodd" clip-rule="evenodd" d="M1223 186L1117.5 190.5L1118 52L1223 186Z" fill="#0154A4"/>
<path d="M1118 52L1012 195L1117.5 190.5L1118 52Z" fill="#00468A"/>
<path fill-rule="evenodd" clip-rule="evenodd" d="M1221.87 213.585C1235.75 232.685 1197.81 283.909 1137.13 327.997C1076.45 372.084 1016 392.34 1002.13 373.239C988.25 354.139 1026.19 302.915 1086.87 258.827C1147.55 214.74 1208 194.484 1221.87 213.585ZM1086.87 263.5C1157.5 207 1277 190 1137.13 310C1066.5 368.844 943 385 1086.87 263.5Z" fill="url(#paint2_linear_35_3)"/>
<path d="M1008 265.5L1031 306.5L1054 305.232L1118 260L1008 265.5Z" fill="#0588E0"/>
<path d="M19.184 601V587.92H25.724V550.097H16.568V561.433H2.834V537.453H70.414V561.433H56.68V550.097H47.524V587.92H54.064V601H19.184ZM100.375 602.09C95.1434 602.09 90.638 601.218 86.8594 599.474C83.0807 597.657 80.1377 595.041 78.0304 591.626C75.9957 588.138 74.9784 583.923 74.9784 578.982C74.9784 574.477 75.9957 570.516 78.0304 567.101C80.065 563.613 82.899 560.888 86.5324 558.926C90.1657 556.964 94.3804 555.983 99.1764 555.983C103.827 555.983 107.787 556.964 111.057 558.926C114.327 560.888 116.834 563.577 118.578 566.992C120.322 570.335 121.194 574.186 121.194 578.546V581.925H84.5704L84.6794 574.295H103.754C103.754 572.987 103.573 571.861 103.209 570.916C102.846 569.971 102.265 569.281 101.465 568.845C100.739 568.336 99.7577 568.082 98.5224 568.082C96.9964 568.082 95.761 568.482 94.8164 569.281C93.9444 570.008 93.3267 571.098 92.9634 572.551C92.6 574.004 92.4184 575.748 92.4184 577.783C92.4184 580.108 92.8907 582.034 93.8354 583.56C94.78 585.013 96.0517 586.103 97.6504 586.83C99.3217 587.557 101.247 587.92 103.427 587.92C105.753 587.92 108.005 587.593 110.185 586.939C112.365 586.212 114.291 585.231 115.962 583.996L120.976 595.332C118.36 597.439 115.272 599.111 111.711 600.346C108.223 601.509 104.445 602.09 100.375 602.09ZM124.039 601V590.1H128.835V547.263H124.039V536.363H147.583V590.1H152.379V601H124.039ZM180.417 602.09C175.403 602.09 171.007 601.109 167.228 599.147C163.449 597.185 160.506 594.424 158.399 590.863C156.292 587.302 155.238 583.16 155.238 578.437C155.238 573.859 156.183 569.899 158.072 566.556C160.034 563.141 162.614 560.525 165.811 558.708C169.008 556.891 172.569 555.983 176.493 555.983C180.417 555.983 183.542 556.746 185.867 558.272C188.265 559.798 190.045 561.833 191.208 564.376H187.72V557.073H199.819V576.148H188.483C188.265 573.605 187.538 571.643 186.303 570.262C185.068 568.809 183.069 568.082 180.308 568.082C178.709 568.082 177.329 568.445 176.166 569.172C175.076 569.899 174.204 570.989 173.55 572.442C172.969 573.823 172.678 575.494 172.678 577.456C172.678 579.636 173.114 581.525 173.986 583.124C174.931 584.723 176.202 585.958 177.801 586.83C179.472 587.629 181.434 588.029 183.687 588.029C186.012 588.029 188.265 587.702 190.445 587.048C192.625 586.321 194.551 585.34 196.222 584.105L201.236 595.441C198.547 597.476 195.495 599.111 192.08 600.346C188.737 601.509 184.85 602.09 180.417 602.09ZM201.633 601V590.1H206.429V547.263H201.742V536.363H225.504V562.305L219.945 564.158C222.924 561.615 225.976 559.616 229.101 558.163C232.226 556.71 235.568 555.983 239.129 555.983C244.143 555.983 247.922 557.509 250.465 560.561C253.008 563.613 254.28 567.283 254.28 571.57V590.1H259.076V601H231.499V590.1H235.205V574.513C235.205 572.624 234.769 571.17 233.897 570.153C233.025 569.063 231.79 568.518 230.191 568.518C228.81 568.518 227.393 568.845 225.94 569.499C224.559 570.08 223.251 570.916 222.016 572.006L225.504 564.158V590.1H229.21V601H201.633ZM261.678 601V590.1H266.474V567.973H261.678V557.073H285.549V570.698L283.587 571.025C284.823 566.956 286.24 563.867 287.838 561.76C289.437 559.58 291.108 558.09 292.852 557.291C294.596 556.419 296.268 555.983 297.866 555.983C299.465 555.983 300.918 556.165 302.226 556.528C303.534 556.819 304.77 557.255 305.932 557.836L302.117 572.987C301.027 572.406 299.647 571.897 297.975 571.461C296.377 571.025 294.633 570.807 292.743 570.807C291.217 570.807 289.619 571.134 287.947 571.788C286.349 572.442 285.549 573.75 285.549 575.712V590.1H291.217V601H261.678ZM332.195 602.09C327.254 602.09 322.93 601.145 319.224 599.256C315.518 597.294 312.648 594.569 310.613 591.081C308.579 587.593 307.561 583.56 307.561 578.982C307.561 574.331 308.579 570.298 310.613 566.883C312.648 563.468 315.518 560.815 319.224 558.926C322.93 556.964 327.254 555.983 332.195 555.983C337.137 555.983 341.46 556.964 345.166 558.926C348.872 560.815 351.743 563.468 353.777 566.883C355.812 570.298 356.829 574.331 356.829 578.982C356.829 583.56 355.812 587.593 353.777 591.081C351.743 594.569 348.872 597.294 345.166 599.256C341.46 601.145 337.137 602.09 332.195 602.09ZM332.195 587.92C333.721 587.92 335.029 587.593 336.119 586.939C337.209 586.212 338.009 585.195 338.517 583.887C339.099 582.506 339.389 580.871 339.389 578.982C339.389 577.093 339.099 575.494 338.517 574.186C338.009 572.878 337.209 571.897 336.119 571.243C335.029 570.516 333.721 570.153 332.195 570.153C330.669 570.153 329.361 570.516 328.271 571.243C327.254 571.897 326.455 572.878 325.873 574.186C325.292 575.494 325.001 577.093 325.001 578.982C325.001 580.871 325.292 582.506 325.873 583.887C326.455 585.195 327.254 586.212 328.271 586.939C329.361 587.593 330.669 587.92 332.195 587.92ZM360.14 601V590.1H364.936V567.973H360.249V557.073H382.376L382.921 562.305L378.452 564.158C381.432 561.615 384.484 559.616 387.608 558.163C390.733 556.71 394.076 555.983 397.636 555.983C402.65 555.983 406.429 557.509 408.972 560.561C411.516 563.613 412.787 567.283 412.787 571.57V590.1H417.583V601H390.006V590.1H393.712V574.513C393.712 572.624 393.276 571.17 392.404 570.153C391.532 569.063 390.297 568.518 388.698 568.518C387.318 568.518 385.901 568.845 384.447 569.499C383.067 570.08 381.759 570.916 380.523 572.006L384.011 564.158V590.1H387.717V601H360.14ZM419.872 601V590.1H423.578V574.513C423.578 572.624 423.142 571.17 422.27 570.153C421.398 569.063 420.163 568.518 418.564 568.518C417.184 568.518 415.767 568.845 414.313 569.499C412.933 570.08 411.625 570.916 410.389 572.006L408.318 564.158C411.298 561.615 414.35 559.616 417.474 558.163C420.599 556.71 423.942 555.983 427.502 555.983C432.516 555.983 436.295 557.509 438.838 560.561C441.382 563.613 442.653 567.283 442.653 571.57V590.1H447.449V601H419.872ZM502.659 601V587.92H509.199V550.097H500.043V561.433H486.309V537.453H553.889V561.433H540.155V550.097H530.999V587.92H537.539V601H502.659ZM583.85 602.09C578.618 602.09 574.113 601.218 570.334 599.474C566.555 597.657 563.612 595.041 561.505 591.626C559.47 588.138 558.453 583.923 558.453 578.982C558.453 574.477 559.47 570.516 561.505 567.101C563.54 563.613 566.374 560.888 570.007 558.926C573.64 556.964 577.855 555.983 582.651 555.983C587.302 555.983 591.262 556.964 594.532 558.926C597.802 560.888 600.309 563.577 602.053 566.992C603.797 570.335 604.669 574.186 604.669 578.546V581.925H568.045L568.154 574.295H587.229C587.229 572.987 587.047 571.861 586.684 570.916C586.321 569.971 585.739 569.281 584.94 568.845C584.213 568.336 583.232 568.082 581.997 568.082C580.471 568.082 579.236 568.482 578.291 569.281C577.419 570.008 576.801 571.098 576.438 572.551C576.075 574.004 575.893 575.748 575.893 577.783C575.893 580.108 576.365 582.034 577.31 583.56C578.255 585.013 579.526 586.103 581.125 586.83C582.796 587.557 584.722 587.92 586.902 587.92C589.227 587.92 591.48 587.593 593.66 586.939C595.84 586.212 597.766 585.231 599.437 583.996L604.451 595.332C601.835 597.439 598.747 599.111 595.186 600.346C591.698 601.509 587.919 602.09 583.85 602.09ZM633.129 602.09C628.115 602.09 623.719 601.109 619.94 599.147C616.161 597.185 613.218 594.424 611.111 590.863C609.004 587.302 607.95 583.16 607.95 578.437C607.95 573.859 608.895 569.899 610.784 566.556C612.746 563.141 615.326 560.525 618.523 558.708C621.72 556.891 625.281 555.983 629.205 555.983C633.129 555.983 636.254 556.746 638.579 558.272C640.977 559.798 642.757 561.833 643.92 564.376H640.432V557.073H652.531V576.148H641.195C640.977 573.605 640.25 571.643 639.015 570.262C637.78 568.809 635.781 568.082 633.02 568.082C631.421 568.082 630.041 568.445 628.878 569.172C627.788 569.899 626.916 570.989 626.262 572.442C625.681 573.823 625.39 575.494 625.39 577.456C625.39 579.636 625.826 581.525 626.698 583.124C627.643 584.723 628.914 585.958 630.513 586.83C632.184 587.629 634.146 588.029 636.399 588.029C638.724 588.029 640.977 587.702 643.157 587.048C645.337 586.321 647.263 585.34 648.934 584.105L653.948 595.441C651.259 597.476 648.207 599.111 644.792 600.346C641.449 601.509 637.562 602.09 633.129 602.09ZM654.345 601V590.1H659.141V547.263H654.454V536.363H678.216V562.305L672.657 564.158C675.636 561.615 678.688 559.616 681.813 558.163C684.938 556.71 688.28 555.983 691.841 555.983C696.855 555.983 700.634 557.509 703.177 560.561C705.72 563.613 706.992 567.283 706.992 571.57V590.1H711.788V601H684.211V590.1H687.917V574.513C687.917 572.624 687.481 571.17 686.609 570.153C685.737 569.063 684.502 568.518 682.903 568.518C681.522 568.518 680.105 568.845 678.652 569.499C677.271 570.08 675.963 570.916 674.728 572.006L678.216 564.158V590.1H681.922V601H654.345ZM714.39 601V590.1H719.186V567.973H714.39V557.073H736.626L737.171 562.305L732.702 564.158C735.682 561.615 738.734 559.616 741.858 558.163C744.983 556.71 748.326 555.983 751.886 555.983C756.9 555.983 760.679 557.509 763.222 560.561C765.766 563.613 767.037 567.283 767.037 571.57V590.1H771.833V601H744.256V590.1H747.962V574.513C747.962 572.624 747.526 571.17 746.654 570.153C745.782 569.063 744.547 568.518 742.948 568.518C741.568 568.518 740.151 568.845 738.697 569.499C737.317 570.08 736.009 570.916 734.773 572.006L738.261 564.158V590.1H741.967V601H714.39ZM799.277 602.09C794.336 602.09 790.012 601.145 786.306 599.256C782.6 597.294 779.73 594.569 777.695 591.081C775.661 587.593 774.643 583.56 774.643 578.982C774.643 574.331 775.661 570.298 777.695 566.883C779.73 563.468 782.6 560.815 786.306 558.926C790.012 556.964 794.336 555.983 799.277 555.983C804.219 555.983 808.542 556.964 812.248 558.926C815.954 560.815 818.825 563.468 820.859 566.883C822.894 570.298 823.911 574.331 823.911 578.982C823.911 583.56 822.894 587.593 820.859 591.081C818.825 594.569 815.954 597.294 812.248 599.256C808.542 601.145 804.219 602.09 799.277 602.09ZM799.277 587.92C800.803 587.92 802.111 587.593 803.201 586.939C804.291 586.212 805.091 585.195 805.599 583.887C806.181 582.506 806.471 580.871 806.471 578.982C806.471 577.093 806.181 575.494 805.599 574.186C805.091 572.878 804.291 571.897 803.201 571.243C802.111 570.516 800.803 570.153 799.277 570.153C797.751 570.153 796.443 570.516 795.353 571.243C794.336 571.897 793.537 572.878 792.955 574.186C792.374 575.494 792.083 577.093 792.083 578.982C792.083 580.871 792.374 582.506 792.955 583.887C793.537 585.195 794.336 586.212 795.353 586.939C796.443 587.593 797.751 587.92 799.277 587.92ZM827.004 601V590.1H831.8V547.263H827.004V536.363H850.548V590.1H855.344V601H827.004ZM882.837 602.09C877.896 602.09 873.572 601.145 869.866 599.256C866.16 597.294 863.29 594.569 861.255 591.081C859.22 587.593 858.203 583.56 858.203 578.982C858.203 574.331 859.22 570.298 861.255 566.883C863.29 563.468 866.16 560.815 869.866 558.926C873.572 556.964 877.896 555.983 882.837 555.983C887.778 555.983 892.102 556.964 895.808 558.926C899.514 560.815 902.384 563.468 904.419 566.883C906.454 570.298 907.471 574.331 907.471 578.982C907.471 583.56 906.454 587.593 904.419 591.081C902.384 594.569 899.514 597.294 895.808 599.256C892.102 601.145 887.778 602.09 882.837 602.09ZM882.837 587.92C884.363 587.92 885.671 587.593 886.761 586.939C887.851 586.212 888.65 585.195 889.159 583.887C889.74 582.506 890.031 580.871 890.031 578.982C890.031 577.093 889.74 575.494 889.159 574.186C888.65 572.878 887.851 571.897 886.761 571.243C885.671 570.516 884.363 570.153 882.837 570.153C881.311 570.153 880.003 570.516 878.913 571.243C877.896 571.897 877.096 572.878 876.515 574.186C875.934 575.494 875.643 577.093 875.643 578.982C875.643 580.871 875.934 582.506 876.515 583.887C877.096 585.195 877.896 586.212 878.913 586.939C880.003 587.593 881.311 587.92 882.837 587.92ZM937.487 622.473C933.708 622.473 930.148 622.11 926.805 621.383C923.535 620.729 920.229 619.821 916.886 618.658L919.72 607.54C922.699 608.485 925.206 609.139 927.241 609.502C929.348 609.865 931.456 610.047 933.563 610.047C936.833 610.047 939.231 609.211 940.757 607.54C942.356 605.869 943.155 603.471 943.155 600.346V596.313L947.951 593.806C945.48 596.713 943.082 598.82 940.757 600.128C938.504 601.436 935.452 602.09 931.601 602.09C927.241 602.09 923.535 601.145 920.483 599.256C917.431 597.367 915.106 594.714 913.507 591.299C911.981 587.884 911.218 583.851 911.218 579.2C911.218 574.622 911.981 570.589 913.507 567.101C915.106 563.613 917.395 560.888 920.374 558.926C923.426 556.964 927.132 555.983 931.492 555.983C935.198 555.983 938.286 556.819 940.757 558.49C943.228 560.089 945.153 561.869 946.534 563.831L944.245 565.03L944.463 557.073H966.917V567.973H962.23V597.512C962.23 602.962 961.249 607.54 959.287 611.246C957.325 614.952 954.491 617.75 950.785 619.639C947.152 621.528 942.719 622.473 937.487 622.473ZM938.25 588.465C939.921 588.465 941.411 588.174 942.719 587.593C944.027 586.939 945.299 585.994 946.534 584.759L943.155 592.28V566.774L945.771 574.077C944.754 572.551 943.591 571.425 942.283 570.698C941.048 569.971 939.703 569.608 938.25 569.608C936.797 569.608 935.489 569.971 934.326 570.698C933.236 571.352 932.364 572.406 931.71 573.859C931.129 575.24 930.838 576.984 930.838 579.091C930.838 580.98 931.129 582.652 931.71 584.105C932.364 585.486 933.236 586.576 934.326 587.375C935.416 588.102 936.724 588.465 938.25 588.465ZM977.704 619.748V606.123H981.301C982.973 606.123 984.39 605.941 985.552 605.578C986.715 605.287 987.732 604.779 988.604 604.052C989.476 603.325 990.276 602.308 991.002 601L992.746 598.057H988.059L971.709 567.973H968.439V557.073H996.016V567.973H991.22L998.85 583.887L1006.37 567.973H1001.58V557.073H1025.66V567.973H1022.39L1003.43 604.161C1001.47 607.794 999.65 610.774 997.978 613.099C996.38 615.424 994.418 617.096 992.092 618.113C989.767 619.203 986.57 619.748 982.5 619.748H977.704ZM1032.57 616.042V610.156C1034.75 610.156 1036.35 609.429 1037.37 607.976C1038.46 606.523 1039.01 604.197 1039.01 601H1032.25V586.285H1048.27V597.948C1048.27 604.125 1047.07 608.666 1044.67 611.573C1042.28 614.552 1038.24 616.042 1032.57 616.042ZM1097.37 601V587.92H1102.82V550.533H1097.37V537.453H1159.17V560.452H1146.09V550.533H1124.73V562.632H1131.16V556.637H1142.06V580.617H1131.27V574.622H1124.73V587.811H1146.53V576.584H1159.61V601H1097.37ZM1167 601V590.1H1171.79V567.973H1167V557.073H1189.23L1189.78 562.305L1185.31 564.158C1188.29 561.615 1191.34 559.616 1194.46 558.163C1197.59 556.71 1200.93 555.983 1204.49 555.983C1209.51 555.983 1213.28 557.509 1215.83 560.561C1218.37 563.613 1219.64 567.283 1219.64 571.57V590.1H1224.44V601H1196.86V590.1H1200.57V574.513C1200.57 572.624 1200.13 571.17 1199.26 570.153C1198.39 569.063 1197.15 568.518 1195.55 568.518C1194.17 568.518 1192.76 568.845 1191.3 569.499C1189.92 570.08 1188.61 570.916 1187.38 572.006L1190.87 564.158V590.1H1194.57V601H1167ZM1253.74 622.473C1249.96 622.473 1246.4 622.11 1243.05 621.383C1239.78 620.729 1236.48 619.821 1233.13 618.658L1235.97 607.54C1238.95 608.485 1241.46 609.139 1243.49 609.502C1245.6 609.865 1247.7 610.047 1249.81 610.047C1253.08 610.047 1255.48 609.211 1257.01 607.54C1258.6 605.869 1259.4 603.471 1259.4 600.346V596.313L1264.2 593.806C1261.73 596.713 1259.33 598.82 1257.01 600.128C1254.75 601.436 1251.7 602.09 1247.85 602.09C1243.49 602.09 1239.78 601.145 1236.73 599.256C1233.68 597.367 1231.35 594.714 1229.76 591.299C1228.23 587.884 1227.47 583.851 1227.47 579.2C1227.47 574.622 1228.23 570.589 1229.76 567.101C1231.35 563.613 1233.64 560.888 1236.62 558.926C1239.67 556.964 1243.38 555.983 1247.74 555.983C1251.45 555.983 1254.54 556.819 1257.01 558.49C1259.48 560.089 1261.4 561.869 1262.78 563.831L1260.49 565.03L1260.71 557.073H1283.17V567.973H1278.48V597.512C1278.48 602.962 1277.5 607.54 1275.54 611.246C1273.57 614.952 1270.74 617.75 1267.03 619.639C1263.4 621.528 1258.97 622.473 1253.74 622.473ZM1254.5 588.465C1256.17 588.465 1257.66 588.174 1258.97 587.593C1260.28 586.939 1261.55 585.994 1262.78 584.759L1259.4 592.28V566.774L1262.02 574.077C1261 572.551 1259.84 571.425 1258.53 570.698C1257.3 569.971 1255.95 569.608 1254.5 569.608C1253.05 569.608 1251.74 569.971 1250.57 570.698C1249.48 571.352 1248.61 572.406 1247.96 573.859C1247.38 575.24 1247.09 576.984 1247.09 579.091C1247.09 580.98 1247.38 582.652 1247.96 584.105C1248.61 585.486 1249.48 586.576 1250.57 587.375C1251.66 588.102 1252.97 588.465 1254.5 588.465ZM1286.21 601V590.1H1291.01V567.973H1286.21V557.073H1310.09V590.1H1314.88V601H1286.21ZM1299.19 549.552C1295.92 549.552 1293.3 548.607 1291.34 546.718C1289.38 544.829 1288.39 542.322 1288.39 539.197C1288.39 536.072 1289.38 533.602 1291.34 531.785C1293.3 529.896 1295.92 528.951 1299.19 528.951C1302.46 528.951 1305.04 529.896 1306.92 531.785C1308.89 533.602 1309.87 536.072 1309.87 539.197C1309.94 542.322 1309 544.829 1307.03 546.718C1305.07 548.607 1302.46 549.552 1299.19 549.552ZM1317.3 601V590.1H1322.09V567.973H1317.3V557.073H1339.53L1340.08 562.305L1335.61 564.158C1338.59 561.615 1341.64 559.616 1344.76 558.163C1347.89 556.71 1351.23 555.983 1354.79 555.983C1359.81 555.983 1363.59 557.509 1366.13 560.561C1368.67 563.613 1369.94 567.283 1369.94 571.57V590.1H1374.74V601H1347.16V590.1H1350.87V574.513C1350.87 572.624 1350.43 571.17 1349.56 570.153C1348.69 569.063 1347.45 568.518 1345.85 568.518C1344.47 568.518 1343.06 568.845 1341.6 569.499C1340.22 570.08 1338.91 570.916 1337.68 572.006L1341.17 564.158V590.1H1344.87V601H1317.3ZM1377.33 601V590.1H1382.13V567.973H1377.33V557.073H1399.57L1400.11 562.305L1395.64 564.158C1398.62 561.615 1401.67 559.616 1404.8 558.163C1407.92 556.71 1411.27 555.983 1414.83 555.983C1419.84 555.983 1423.62 557.509 1426.16 560.561C1428.71 563.613 1429.98 567.283 1429.98 571.57V590.1H1434.77V601H1407.2V590.1H1410.9V574.513C1410.9 572.624 1410.47 571.17 1409.6 570.153C1408.72 569.063 1407.49 568.518 1405.89 568.518C1404.51 568.518 1403.09 568.845 1401.64 569.499C1400.26 570.08 1398.95 570.916 1397.71 572.006L1401.2 564.158V590.1H1404.91V601H1377.33ZM1462.98 602.09C1457.75 602.09 1453.24 601.218 1449.47 599.474C1445.69 597.657 1442.74 595.041 1440.64 591.626C1438.6 588.138 1437.58 583.923 1437.58 578.982C1437.58 574.477 1438.6 570.516 1440.64 567.101C1442.67 563.613 1445.51 560.888 1449.14 558.926C1452.77 556.964 1456.99 555.983 1461.78 555.983C1466.43 555.983 1470.39 556.964 1473.66 558.926C1476.93 560.888 1479.44 563.577 1481.18 566.992C1482.93 570.335 1483.8 574.186 1483.8 578.546V581.925H1447.18L1447.29 574.295H1466.36C1466.36 572.987 1466.18 571.861 1465.82 570.916C1465.45 569.971 1464.87 569.281 1464.07 568.845C1463.35 568.336 1462.36 568.082 1461.13 568.082C1459.6 568.082 1458.37 568.482 1457.42 569.281C1456.55 570.008 1455.93 571.098 1455.57 572.551C1455.21 574.004 1455.02 575.748 1455.02 577.783C1455.02 580.108 1455.5 582.034 1456.44 583.56C1457.39 585.013 1458.66 586.103 1460.26 586.83C1461.93 587.557 1463.85 587.92 1466.03 587.92C1468.36 587.92 1470.61 587.593 1472.79 586.939C1474.97 586.212 1476.9 585.231 1478.57 583.996L1483.58 595.332C1480.97 597.439 1477.88 599.111 1474.32 600.346C1470.83 601.509 1467.05 602.09 1462.98 602.09ZM1486.86 601V590.1H1491.66V567.973H1486.86V557.073H1510.73V570.698L1508.77 571.025C1510.01 566.956 1511.43 563.867 1513.02 561.76C1514.62 559.58 1516.29 558.09 1518.04 557.291C1519.78 556.419 1521.45 555.983 1523.05 555.983C1524.65 555.983 1526.1 556.165 1527.41 556.528C1528.72 556.819 1529.96 557.255 1531.12 557.836L1527.3 572.987C1526.21 572.406 1524.83 571.897 1523.16 571.461C1521.56 571.025 1519.82 570.807 1517.93 570.807C1516.4 570.807 1514.8 571.134 1513.13 571.788C1511.53 572.442 1510.73 573.75 1510.73 575.712V590.1H1516.4V601H1486.86ZM1532.53 601V590.1H1537.32V567.973H1532.53V557.073H1556.4V590.1H1561.2V601H1532.53ZM1545.5 549.552C1542.23 549.552 1539.61 548.607 1537.65 546.718C1535.69 544.829 1534.71 542.322 1534.71 539.197C1534.71 536.072 1535.69 533.602 1537.65 531.785C1539.61 529.896 1542.23 528.951 1545.5 528.951C1548.77 528.951 1551.35 529.896 1553.24 531.785C1555.2 533.602 1556.18 536.072 1556.18 539.197C1556.25 542.322 1555.31 544.829 1553.35 546.718C1551.39 548.607 1548.77 549.552 1545.5 549.552ZM1563.61 601V590.1H1568.41V567.973H1563.61V557.073H1585.85L1586.39 562.305L1581.92 564.158C1584.9 561.615 1587.95 559.616 1591.08 558.163C1594.2 556.71 1597.55 555.983 1601.11 555.983C1606.12 555.983 1609.9 557.509 1612.44 560.561C1614.99 563.613 1616.26 567.283 1616.26 571.57V590.1H1621.05V601H1593.48V590.1H1597.18V574.513C1597.18 572.624 1596.75 571.17 1595.87 570.153C1595 569.063 1593.77 568.518 1592.17 568.518C1590.79 568.518 1589.37 568.845 1587.92 569.499C1586.54 570.08 1585.23 570.916 1583.99 572.006L1587.48 564.158V590.1H1591.19V601H1563.61ZM1650.35 622.473C1646.57 622.473 1643.01 622.11 1639.67 621.383C1636.4 620.729 1633.09 619.821 1629.75 618.658L1632.58 607.54C1635.56 608.485 1638.07 609.139 1640.11 609.502C1642.21 609.865 1644.32 610.047 1646.43 610.047C1649.7 610.047 1652.1 609.211 1653.62 607.54C1655.22 605.869 1656.02 603.471 1656.02 600.346V596.313L1660.82 593.806C1658.34 596.713 1655.95 598.82 1653.62 600.128C1651.37 601.436 1648.32 602.09 1644.47 602.09C1640.11 602.09 1636.4 601.145 1633.35 599.256C1630.3 597.367 1627.97 594.714 1626.37 591.299C1624.85 587.884 1624.08 583.851 1624.08 579.2C1624.08 574.622 1624.85 570.589 1626.37 567.101C1627.97 563.613 1630.26 560.888 1633.24 558.926C1636.29 556.964 1640 555.983 1644.36 555.983C1648.06 555.983 1651.15 556.819 1653.62 558.49C1656.09 560.089 1658.02 561.869 1659.4 563.831L1657.11 565.03L1657.33 557.073H1679.78V567.973H1675.09V597.512C1675.09 602.962 1674.11 607.54 1672.15 611.246C1670.19 614.952 1667.36 617.75 1663.65 619.639C1660.02 621.528 1655.58 622.473 1650.35 622.473ZM1651.11 588.465C1652.79 588.465 1654.28 588.174 1655.58 587.593C1656.89 586.939 1658.16 585.994 1659.4 584.759L1656.02 592.28V566.774L1658.64 574.077C1657.62 572.551 1656.46 571.425 1655.15 570.698C1653.91 569.971 1652.57 569.608 1651.11 569.608C1649.66 569.608 1648.35 569.971 1647.19 570.698C1646.1 571.352 1645.23 572.406 1644.57 573.859C1643.99 575.24 1643.7 576.984 1643.7 579.091C1643.7 580.98 1643.99 582.652 1644.57 584.105C1645.23 585.486 1646.1 586.576 1647.19 587.375C1648.28 588.102 1649.59 588.465 1651.11 588.465ZM1747.28 602.199C1741.83 602.199 1737.29 601.218 1733.66 599.256C1730.02 597.221 1727.3 594.678 1725.48 591.626C1723.74 588.501 1722.87 585.34 1722.87 582.143C1722.87 579.382 1723.59 576.984 1725.05 574.949C1726.5 572.914 1728.39 571.098 1730.71 569.499C1733.11 567.9 1735.73 566.447 1738.56 565.139C1737.4 563.686 1736.42 562.087 1735.62 560.343C1734.82 558.526 1734.42 556.056 1734.42 552.931C1734.42 550.606 1735.15 548.426 1736.6 546.391C1738.13 544.284 1740.42 542.576 1743.47 541.268C1746.52 539.887 1750.3 539.197 1754.8 539.197C1758.95 539.197 1762.36 539.887 1765.05 541.268C1767.74 542.649 1769.74 544.356 1771.04 546.391C1772.43 548.353 1773.12 550.351 1773.12 552.386C1773.12 555.075 1772.35 557.582 1770.83 559.907C1769.3 562.232 1766.21 564.558 1761.56 566.883L1769.41 574.622C1770.43 573.241 1771.26 571.715 1771.92 570.044C1772.64 568.373 1773.22 566.701 1773.66 565.03C1774.17 563.359 1774.61 561.869 1774.97 560.561H1794.26V571.352L1786.52 571.461C1785.94 572.987 1785.25 574.513 1784.45 576.039C1783.73 577.492 1782.93 578.946 1782.05 580.399C1781.18 581.78 1780.16 583.233 1779 584.759L1784.23 589.773H1794.37V601H1771.7L1767.23 595.441C1764.76 597.548 1761.89 599.22 1758.62 600.455C1755.35 601.618 1751.57 602.199 1747.28 602.199ZM1749.68 589.991C1751.5 589.991 1753.06 589.737 1754.37 589.228C1755.68 588.719 1756.98 587.666 1758.29 586.067L1746.41 573.75C1745.03 574.767 1743.9 575.93 1743.03 577.238C1742.23 578.473 1741.83 579.927 1741.83 581.598C1741.83 582.179 1742.05 583.16 1742.49 584.541C1743 585.922 1743.83 587.193 1744.99 588.356C1746.16 589.446 1747.72 589.991 1749.68 589.991ZM1753.93 557.836C1755.82 557.037 1756.95 556.201 1757.31 555.329C1757.67 554.457 1757.86 553.403 1757.86 552.168C1757.86 550.86 1757.57 549.952 1756.98 549.443C1756.4 548.862 1755.68 548.571 1754.8 548.571C1753.5 548.571 1752.62 548.825 1752.19 549.334C1751.82 549.843 1751.64 550.606 1751.64 551.623C1751.64 553.076 1751.9 554.312 1752.41 555.329C1752.91 556.274 1753.42 557.109 1753.93 557.836ZM1878.96 602.09C1875.91 602.09 1872.67 601.618 1869.26 600.673C1865.91 599.656 1862.93 598.239 1860.32 596.422C1857.77 594.533 1856.18 592.244 1855.52 589.555H1858.36V601H1844.19V579.309H1856.72C1858.03 581.489 1859.56 583.415 1861.3 585.086C1863.12 586.685 1865.15 587.956 1867.4 588.901C1869.66 589.773 1872.09 590.209 1874.71 590.209C1876.6 590.209 1878.12 589.809 1879.28 589.01C1880.45 588.138 1881.03 586.903 1881.03 585.304C1881.03 584.141 1880.74 583.16 1880.16 582.361C1879.65 581.562 1878.78 580.908 1877.54 580.399C1876.3 579.818 1874.67 579.309 1872.64 578.873L1863.92 577.02C1856.87 575.421 1851.71 572.951 1848.44 569.608C1845.24 566.193 1843.64 561.615 1843.64 555.874C1843.64 552.095 1844.51 548.753 1846.26 545.846C1848.07 542.867 1850.62 540.541 1853.89 538.87C1857.16 537.199 1860.94 536.363 1865.22 536.363C1870.46 536.363 1874.89 537.235 1878.52 538.979C1882.23 540.65 1885.35 543.085 1887.9 546.282H1885.28V537.453H1898.36V556.201H1886.37C1885.5 554.82 1884.33 553.549 1882.88 552.386C1881.43 551.151 1879.72 550.17 1877.76 549.443C1875.87 548.644 1873.76 548.244 1871.44 548.244C1869.62 548.244 1868.2 548.607 1867.19 549.334C1866.17 550.061 1865.66 551.151 1865.66 552.604C1865.66 554.275 1866.49 555.583 1868.17 556.528C1869.84 557.473 1872.64 558.345 1876.56 559.144L1880.92 560.016C1885.64 560.961 1889.53 562.341 1892.58 564.158C1895.63 565.975 1897.89 568.3 1899.34 571.134C1900.79 573.968 1901.52 577.42 1901.52 581.489C1901.52 585.922 1900.58 589.664 1898.69 592.716C1896.8 595.768 1894.14 598.093 1890.73 599.692C1887.39 601.291 1883.46 602.09 1878.96 602.09ZM1933.04 602.09C1927.81 602.09 1923.31 601.218 1919.53 599.474C1915.75 597.657 1912.81 595.041 1910.7 591.626C1908.66 588.138 1907.65 583.923 1907.65 578.982C1907.65 574.477 1908.66 570.516 1910.7 567.101C1912.73 563.613 1915.57 560.888 1919.2 558.926C1922.83 556.964 1927.05 555.983 1931.85 555.983C1936.5 555.983 1940.46 556.964 1943.73 558.926C1947 560.888 1949.5 563.577 1951.25 566.992C1952.99 570.335 1953.86 574.186 1953.86 578.546V581.925H1917.24L1917.35 574.295H1936.42C1936.42 572.987 1936.24 571.861 1935.88 570.916C1935.51 569.971 1934.93 569.281 1934.13 568.845C1933.41 568.336 1932.43 568.082 1931.19 568.082C1929.67 568.082 1928.43 568.482 1927.49 569.281C1926.61 570.008 1926 571.098 1925.63 572.551C1925.27 574.004 1925.09 575.748 1925.09 577.783C1925.09 580.108 1925.56 582.034 1926.5 583.56C1927.45 585.013 1928.72 586.103 1930.32 586.83C1931.99 587.557 1933.92 587.92 1936.1 587.92C1938.42 587.92 1940.67 587.593 1942.85 586.939C1945.03 586.212 1946.96 585.231 1948.63 583.996L1953.65 595.332C1951.03 597.439 1947.94 599.111 1944.38 600.346C1940.89 601.509 1937.11 602.09 1933.04 602.09ZM1982.32 602.09C1977.31 602.09 1972.91 601.109 1969.13 599.147C1965.36 597.185 1962.41 594.424 1960.31 590.863C1958.2 587.302 1957.14 583.16 1957.14 578.437C1957.14 573.859 1958.09 569.899 1959.98 566.556C1961.94 563.141 1964.52 560.525 1967.72 558.708C1970.91 556.891 1974.48 555.983 1978.4 555.983C1982.32 555.983 1985.45 556.746 1987.77 558.272C1990.17 559.798 1991.95 561.833 1993.11 564.376H1989.63V557.073H2001.73V576.148H1990.39C1990.17 573.605 1989.44 571.643 1988.21 570.262C1986.97 568.809 1984.98 568.082 1982.21 568.082C1980.62 568.082 1979.24 568.445 1978.07 569.172C1976.98 569.899 1976.11 570.989 1975.46 572.442C1974.88 573.823 1974.58 575.494 1974.58 577.456C1974.58 579.636 1975.02 581.525 1975.89 583.124C1976.84 584.723 1978.11 585.958 1979.71 586.83C1981.38 587.629 1983.34 588.029 1985.59 588.029C1987.92 588.029 1990.17 587.702 1992.35 587.048C1994.53 586.321 1996.46 585.34 1998.13 584.105L2003.14 595.441C2000.45 597.476 1997.4 599.111 1993.99 600.346C1990.64 601.509 1986.76 602.09 1982.32 602.09ZM2025.72 602.09C2022.38 602.09 2019.58 601.4 2017.33 600.019C2015.08 598.566 2013.37 596.676 2012.21 594.351C2011.12 591.953 2010.57 589.337 2010.57 586.503V567.973H2005.77V557.073H2029.65V583.56C2029.65 585.449 2030.08 586.939 2030.95 588.029C2031.83 589.046 2033.06 589.555 2034.66 589.555C2036.04 589.555 2037.42 589.264 2038.8 588.683C2040.25 588.029 2041.6 587.157 2042.83 586.067L2039.35 593.915V567.973H2035.64V557.073H2058.42V590.1H2063.22V601H2040.98L2040.44 595.768L2044.91 593.915C2042 596.458 2038.98 598.457 2035.86 599.91C2032.73 601.363 2029.35 602.09 2025.72 602.09ZM2066.25 601V590.1H2071.04V567.973H2066.25V557.073H2090.12V570.698L2088.15 571.025C2089.39 566.956 2090.81 563.867 2092.41 561.76C2094 559.58 2095.68 558.09 2097.42 557.291C2099.16 556.419 2100.84 555.983 2102.43 555.983C2104.03 555.983 2105.49 556.165 2106.79 556.528C2108.1 556.819 2109.34 557.255 2110.5 557.836L2106.68 572.987C2105.59 572.406 2104.21 571.897 2102.54 571.461C2100.94 571.025 2099.2 570.807 2097.31 570.807C2095.78 570.807 2094.19 571.134 2092.51 571.788C2090.92 572.442 2090.12 573.75 2090.12 575.712V590.1H2095.78V601H2066.25ZM2111.91 601V590.1H2116.71V567.973H2111.91V557.073H2135.78V590.1H2140.58V601H2111.91ZM2124.88 549.552C2121.61 549.552 2119 548.607 2117.03 546.718C2115.07 544.829 2114.09 542.322 2114.09 539.197C2114.09 536.072 2115.07 533.602 2117.03 531.785C2119 529.896 2121.61 528.951 2124.88 528.951C2128.15 528.951 2130.73 529.896 2132.62 531.785C2134.58 533.602 2135.56 536.072 2135.56 539.197C2135.64 542.322 2134.69 544.829 2132.73 546.718C2130.77 548.607 2128.15 549.552 2124.88 549.552ZM2162.5 601C2157.85 601 2154.26 599.983 2151.71 597.948C2149.17 595.841 2147.9 592.498 2147.9 587.92V567.973H2142.99V557.073H2147.79V543.121L2166.86 540.614V557.073H2176.24V567.973H2166.86V584.323C2166.86 586.285 2167.23 587.666 2167.95 588.465C2168.75 589.264 2170.06 589.664 2171.88 589.664H2176.24V601H2162.5ZM2187.46 619.748V606.123H2191.05C2192.72 606.123 2194.14 605.941 2195.3 605.578C2196.47 605.287 2197.48 604.779 2198.36 604.052C2199.23 603.325 2200.03 602.308 2200.75 601L2202.5 598.057H2197.81L2181.46 567.973H2178.19V557.073H2205.77V567.973H2200.97L2208.6 583.887L2216.12 567.973H2211.33V557.073H2235.42V567.973H2232.15L2213.18 604.161C2211.22 607.794 2209.4 610.774 2207.73 613.099C2206.13 615.424 2204.17 617.096 2201.84 618.113C2199.52 619.203 2196.32 619.748 2192.25 619.748H2187.46Z" fill="#005E8D"/>
<defs>
<linearGradient id="paint0_linear_35_3" x1="1136" y1="443" x2="1090" y2="376" gradientUnits="userSpaceOnUse">
<stop stop-color="#093979"/>
<stop offset="1" stop-color="#0099FF"/>
</linearGradient>
<linearGradient id="paint1_linear_35_3" x1="1164" y1="259" x2="1069" y2="307" gradientUnits="userSpaceOnUse">
<stop stop-color="#093979"/>
<stop offset="1" stop-color="#0588E0"/>
</linearGradient>
<linearGradient id="paint2_linear_35_3" x1="1220" y1="265" x2="1088.5" y2="197.5" gradientUnits="userSpaceOnUse">
<stop stop-color="#13D6F6"/>
<stop offset="1" stop-color="#086797"/>
</linearGradient>
</defs>
</svg>
